<svg version="1.1" id="Calque_1" xmlns="http://www.w3.org/2000/svg" xmlns:xlink="http://www.w3.org/1999/xlink"
	 viewBox="0 0 80 75" enable-background="new 0 0 80 75" xml:space="preserve">
	<path d="M73.844,6.458c-8.208-8.611-21.558-8.611-29.766,0L4.389,48.092c-5.853,6.14-5.853,16.164,0,22.304
			c5.853,6.14,15.409,6.14,21.262,0l39.688-41.634c3.497-3.668,3.497-9.714,0-13.382c-3.497-3.668-9.26-3.668-12.757,0
			L18.564,51.065c-0.777,0.793-1.088,1.964-0.812,3.064c0.276,1.1,1.095,1.959,2.143,2.249c1.049,0.289,2.165-0.036,2.921-0.852
			L56.835,19.84c1.215-1.274,3.038-1.274,4.252,0c1.215,1.274,1.215,3.187,0,4.461L21.399,65.935c-3.571,3.745-9.187,3.745-12.757,0
			c-3.57-3.745-3.57-9.637,0-13.382L48.33,10.919c5.926-6.217,15.335-6.217,21.262,0c5.926,6.217,5.926,16.087,0,22.304
			L35.573,68.908c-0.778,0.793-1.089,1.964-0.814,3.065c0.276,1.101,1.095,1.96,2.145,2.25c1.049,0.289,2.166-0.037,2.922-0.854
			l34.018-35.686C82.052,29.072,82.052,15.069,73.844,6.458z"/>
</svg>
