<svg version="1.1" xmlns="http://www.w3.org/2000/svg" xmlns:xlink="http://www.w3.org/1999/xlink" width="1em" height="1em" fill="#004990" viewBox="0 0 25 25">
  <circle cx="12.5" cy="12.5" r="12.5" fill="#f7f8f9"/>
  <g transform="translate(5, 5)">
    <path d="M2.01 6.03a4.025 4.025 0 0 1 4.02-4.02 4.025 4.025 0 0 1 4.02 4.02 4.025 4.025 0 0 1-4.02 4.02 4.024 4.024 0 0 1-4.02-4.02m12.696 7.256l-3.769-3.768a5.991 5.991 0 0 0 1.12-3.487 6.036 6.036 0 0 0-6.03-6.03 6.036 6.036 0 0 0-6.03 6.03 6.036 6.036 0 0 0 6.03 6.03c1.3 0 2.502-.418 3.487-1.12l3.769 3.769a1.001 1.001 0 0 0 1.42 0 1.005 1.005 0 0 0 0-1.422" />
  </g>
</svg>
