<svg version="1.1" xmlns="http://www.w3.org/2000/svg" xmlns:xlink="http://www.w3.org/1999/xlink" width="1em" height="1em" viewBox="0 0 15 15">
  <path d="M 7.5,15 A 7.5,7.5 0 1 1 15,7.5 7.5,7.5 0 0 1 7.5,15 Z M 7.5,1 A 6.5,6.5 0 1 0 14,7.5 6.51,6.51 0 0 0 7.5,1 Z"/>
  <path d="M 3.39,12.5 A 6.48,6.48 0 0 0 11.5,12.6 7.08,7.08 0 0 0 8.98,11.6 8,8 0 0 1 8.6,10.25 4,4 0 0 0 11,6.5 3.78,3.78 0 0 0 7.5,2.5 3.78,3.78 0 0 0 4,6.5 4,4 0 0 0 6.37,10.29 8.25,8.25 0 0 1 6.01,11.61 7.2,7.2 0 0 0 3.39,12.5 Z"/>
</svg>
